<svg xmlns="http://www.w3.org/2000/svg" xmlns:xlink="http://www.w3.org/1999/xlink" viewBox="0 0 224.52 267.05"><defs><style>.cls-1{fill:none;}.cls-2{fill:#3f51b5;}.cls-3{fill:#5c6bc0;}.cls-4{fill:#eee;}.cls-5,.cls-6{opacity:0.6;}.cls-5{fill:url(#linear-gradient);}.cls-6{fill:url(#linear-gradient-2);}.cls-7{clip-path:url(#clip-path);}.cls-8{fill:#db4437;}.cls-9{fill:#ffcd40;}.cls-10{fill:#0f9d58;}.cls-11{fill:#4285f4;}.cls-12{opacity:0.2;}.cls-13{fill:#fff;}.cls-14{fill:#3e2723;}.cls-15{opacity:0.1;}.cls-16{fill:#263238;}.cls-17{opacity:0.15;}.cls-18{fill:url(#linear-gradient-3);}.cls-19{opacity:0.15;}.cls-20{opacity:0.54;}.cls-21{fill:#616161;}</style><linearGradient id="linear-gradient" x1="111.68" y1="151.25" x2="112.37" y2="143.36" gradientUnits="userSpaceOnUse"><stop offset="0.2" stop-opacity="0"/><stop offset="1" stop-opacity="0.4"/></linearGradient><linearGradient id="linear-gradient-2" x1="127.85" y1="227.32" x2="126.68" y2="219.03" gradientUnits="userSpaceOnUse"><stop offset="0.3" stop-opacity="0"/><stop offset="1" stop-opacity="0.4"/></linearGradient><clipPath id="clip-path"><path id="SVGID" class="cls-1" d="M19.79,66.08,33.11,87.87,19.79,109.67H32.51l12.22-20a3.63,3.63,0,0,0,0-3.66l-12.22-20ZM54.28,78.62l-12.22,20a3.64,3.64,0,0,0,0,3.66l12.22,20H67L53.68,100.41,67,78.62Z"/></clipPath><linearGradient id="linear-gradient-3" x1="52.51" y1="107.67" x2="50.01" y2="106.05" gradientUnits="userSpaceOnUse"><stop offset="0" stop-opacity="0"/><stop offset="1" stop-opacity="0.2"/></linearGradient></defs><title>2018-GDE-Firebase-Badge</title><g id="Warstwa_2" data-name="Warstwa 2"><g id="Warstwa_1-2" data-name="Warstwa 1"><path class="cls-2" d="M224.52,157.14v40.72a10.36,10.36,0,0,1-5.18,9L117.45,265.67a10.4,10.4,0,0,1-10.38,0L5.18,206.84a10.36,10.36,0,0,1-5.18-9V132.1Z"/><path class="cls-3" d="M224.52,157.14v40.72a10.36,10.36,0,0,1-5.18,9l-9.35,5.4L43.83,229.16,5.18,206.84a10.36,10.36,0,0,1-5.18-9V132.1Z"/><path class="cls-1" d="M224.52,157.14v40.72a10.36,10.36,0,0,1-5.18,9l-9.35,5.4-92.54,53.43a10.4,10.4,0,0,1-10.38,0L43.83,229.16,5.18,206.84a10.36,10.36,0,0,1-5.18-9V132.1Z"/><path class="cls-4" d="M224.52,69.2v87.94L0,132.1V69.2a10.36,10.36,0,0,1,5.18-9L107.07,1.39a10.4,10.4,0,0,1,10.38,0L219.34,60.22A10.36,10.36,0,0,1,224.52,69.2Z"/><polygon class="cls-5" points="0 132.1 0 141.66 224.52 157.14 0 132.1"/><polygon class="cls-6" points="43.84 229.15 58 237.33 209.99 212.23 43.84 229.15"/><g class="cls-7"><polygon class="cls-8" points="19.79 66.08 32.51 66.08 39.47 77.46 39.47 87.87 33.11 87.87 19.79 66.08"/><polygon class="cls-9" points="67 122.2 54.28 122.2 47.32 110.82 53.68 100.41 67 122.2"/><path class="cls-10" d="M47.32,110.82l-5.25-8.58a3.64,3.64,0,0,1,0-3.66l12.22-20H67Z"/></g><g class="cls-7"><path class="cls-11" d="M33.11,87.87l6.36-10.41L44.73,86a3.64,3.64,0,0,1,0,3.66l-12.22,20H19.79Z"/><g class="cls-12"><polygon class="cls-13" points="20.16 66.38 19.79 66.08 32.51 66.08 39.48 77.46 39.38 77.62 32.51 66.38 20.16 66.38"/></g><g class="cls-12"><polygon class="cls-14" points="33.2 87.72 33.11 87.87 19.79 66.08 20.16 66.38 33.2 87.72"/></g><g class="cls-15"><polygon class="cls-14" points="39.38 77.61 33.11 87.87 33.02 87.72 39.29 77.46 39.38 77.61"/></g><g class="cls-12"><path class="cls-13" d="M42.07,98.88a3.46,3.46,0,0,0-.49,1.68c0-.05,0-.1,0-.15a3.5,3.5,0,0,1,.49-1.83l12.22-20H67l-.37.3H54.28Z"/></g><g class="cls-12"><polygon class="cls-16" points="66.63 78.92 67 78.61 53.68 100.41 47.32 110.82 47.22 110.67 52.22 102.5 66.63 78.92"/></g><g class="cls-17"><polygon class="cls-14" points="66.63 121.9 67 122.2 54.28 122.2 47.32 110.82 47.41 110.67 54.28 121.9 66.63 121.9"/></g><g class="cls-12"><polygon class="cls-13" points="53.59 100.56 53.68 100.41 67 122.2 66.63 121.9 53.59 100.56"/></g><g class="cls-12"><path class="cls-16" d="M44.73,89.4a3.46,3.46,0,0,0,.48-1.68c0,.05,0,.1,0,.15a3.5,3.5,0,0,1-.49,1.83l-12.22,20H19.79l.37-.3H32.51Z"/></g><g class="cls-12"><path class="cls-13" d="M39.47,77.77,33.11,88.18,20.16,109.37l-.37.3L33.11,87.87l6.36-10.41L44.73,86a3.5,3.5,0,0,1,.49,1.83c0,.05,0,.1,0,.15a3.47,3.47,0,0,0-.49-1.68Z"/></g></g><line class="cls-1" x1="44.72" y1="86.04" x2="32.51" y2="66.08"/><polygon class="cls-18" points="55.28 103.03 48.84 113.32 47.32 110.82 53.68 100.41 55.28 103.03"/><polygon class="cls-19" points="31.58 85.36 39.47 77.46 33.11 87.87 31.58 85.36"/><g class="cls-20"><rect class="cls-1" x="77.69" y="65.75" width="50.14" height="17.55"/><path d="M98.6,74.56a4,4,0,1,1-4-4A3.92,3.92,0,0,1,98.6,74.56Zm-1.75,0A2.25,2.25,0,1,0,94.61,77,2.29,2.29,0,0,0,96.85,74.56Z"/><path d="M107.37,74.56a4,4,0,1,1-4-4A3.92,3.92,0,0,1,107.37,74.56Zm-1.75,0A2.25,2.25,0,1,0,103.39,77,2.29,2.29,0,0,0,105.63,74.56Z"/><path d="M115.78,70.83V78c0,2.93-1.73,4.14-3.78,4.14a3.78,3.78,0,0,1-3.52-2.35l1.52-.63a2.2,2.2,0,0,0,2,1.41c1.31,0,2.12-.81,2.12-2.33v-.57h-.06a2.71,2.71,0,0,1-2.09.9,4,4,0,0,1,0-7.94,2.75,2.75,0,0,1,2.09.89h.06v-.65Zm-1.53,3.75a2.24,2.24,0,0,0-2.12-2.42,2.42,2.42,0,0,0,0,4.81A2.22,2.22,0,0,0,114.25,74.57Z"/><path d="M118.9,66.69v11.6h-1.72V66.69Z"/><path d="M125.71,75.87l1.35.9a4,4,0,0,1-3.31,1.76,3.89,3.89,0,0,1-3.94-4,3.77,3.77,0,0,1,3.75-4,3.69,3.69,0,0,1,3.4,2.53l.18.45-5.31,2.2a2,2,0,0,0,1.93,1.2A2.27,2.27,0,0,0,125.71,75.87Zm-4.17-1.43L125.09,73a1.54,1.54,0,0,0-1.47-.84A2.18,2.18,0,0,0,121.54,74.44Z"/><path d="M89.75,71.78a6.88,6.88,0,0,1,.08,1.07,5.57,5.57,0,0,1-1.46,3.94,5.64,5.64,0,0,1-4.3,1.73,6.17,6.17,0,1,1,0-12.34,5.88,5.88,0,0,1,4.23,1.7l-1.19,1.19a4.3,4.3,0,0,0-3-1.2,4.48,4.48,0,0,0,0,9,4.13,4.13,0,0,0,3.11-1.23,3.59,3.59,0,0,0,.93-2.14h-4V71.78Z"/><path d="M132.36,78.29V67.52h3.29a5.35,5.35,0,0,1,4,1.5,5.82,5.82,0,0,1,0,7.78,5.35,5.35,0,0,1-4,1.5ZM133.75,77h1.91a4,4,0,0,0,3-1.07,4.07,4.07,0,0,0-3-7.06h-1.91Z"/><path d="M145.63,78.53a3.55,3.55,0,0,1-2.72-1.11,4,4,0,0,1-1-2.81,4.06,4.06,0,0,1,1-2.77,3.3,3.3,0,0,1,2.59-1.16,3.4,3.4,0,0,1,2.62,1.07,4.05,4.05,0,0,1,1,2.86l0,.26h-5.82a2.5,2.5,0,0,0,.74,1.76,2.26,2.26,0,0,0,1.6.65,2,2,0,0,0,2-1.26l1.23.51A3.3,3.3,0,0,1,147.66,78,3.45,3.45,0,0,1,145.63,78.53Zm2-4.81a2,2,0,0,0-.58-1.2,2.07,2.07,0,0,0-1.59-.57,2,2,0,0,0-1.33.48,2.46,2.46,0,0,0-.77,1.29Z"/><path d="M152.55,78.29l-3-7.37h1.5l2.17,5.72h0l2.2-5.72h1.47l-3,7.37Z"/><path d="M160.81,78.53a3.55,3.55,0,0,1-2.72-1.11,4,4,0,0,1-1-2.81,4.06,4.06,0,0,1,1-2.77,3.3,3.3,0,0,1,2.59-1.16,3.4,3.4,0,0,1,2.63,1.07,4,4,0,0,1,1,2.86v.26h-5.82a2.5,2.5,0,0,0,.74,1.76,2.26,2.26,0,0,0,1.6.65,2,2,0,0,0,2-1.26l1.23.51A3.3,3.3,0,0,1,162.84,78,3.45,3.45,0,0,1,160.81,78.53Zm2-4.81a2,2,0,0,0-.58-1.2,2.07,2.07,0,0,0-1.59-.57,2,2,0,0,0-1.33.48,2.46,2.46,0,0,0-.77,1.29Z"/><path d="M166.76,78.29h-1.38V67.52h1.38Z"/><path d="M168.95,71.8a3.87,3.87,0,0,1,5.45,0,4.22,4.22,0,0,1,0,5.61,3.87,3.87,0,0,1-5.45,0,4.22,4.22,0,0,1,0-5.61Zm1,4.74a2.33,2.33,0,0,0,3.38,0,3,3,0,0,0,0-3.87,2.33,2.33,0,0,0-3.38,0,3,3,0,0,0,0,3.87Z"/><path d="M180.4,78.53a3.13,3.13,0,0,1-1.51-.36,2.55,2.55,0,0,1-1-.9h-.06l.06,1v3.25h-1.38V70.92h1.32v1h.06a2.55,2.55,0,0,1,1-.9,3.13,3.13,0,0,1,1.51-.36,3.24,3.24,0,0,1,2.47,1.13,4.29,4.29,0,0,1,0,5.6A3.24,3.24,0,0,1,180.4,78.53Zm-.23-1.26a2.2,2.2,0,0,0,1.65-.73,3,3,0,0,0,0-3.87,2.26,2.26,0,0,0-3.32,0,3.09,3.09,0,0,0,0,3.88A2.21,2.21,0,0,0,180.18,77.27Z"/><path d="M188.44,78.53a3.55,3.55,0,0,1-2.72-1.11,4,4,0,0,1-1-2.81,4.06,4.06,0,0,1,1-2.77,3.3,3.3,0,0,1,2.59-1.16,3.4,3.4,0,0,1,2.62,1.07,4.05,4.05,0,0,1,1,2.86l0,.26h-5.82a2.5,2.5,0,0,0,.74,1.76,2.26,2.26,0,0,0,1.6.65,2,2,0,0,0,2-1.26l1.23.51A3.3,3.3,0,0,1,190.47,78,3.45,3.45,0,0,1,188.44,78.53Zm2-4.81a2,2,0,0,0-.58-1.2,2.07,2.07,0,0,0-1.59-.57,2,2,0,0,0-1.33.48,2.46,2.46,0,0,0-.77,1.29Z"/><path d="M194.39,78.29H193V70.92h1.32v1.2h.06a1.89,1.89,0,0,1,.86-1,2.48,2.48,0,0,1,1.27-.39,2.64,2.64,0,0,1,1,.18L197,72.21a2.1,2.1,0,0,0-.74-.11,1.81,1.81,0,0,0-1.33.59,2.14,2.14,0,0,0-.58,1.56Z"/><path d="M201.21,78.53a3.31,3.31,0,0,1-2-.6,3.56,3.56,0,0,1-1.18-1.5l1.23-.51a2,2,0,0,0,2,1.38,1.83,1.83,0,0,0,1.06-.29.88.88,0,0,0,.41-.75q0-.72-1-1l-1.49-.36a3.54,3.54,0,0,1-1.34-.68,1.65,1.65,0,0,1-.63-1.36,1.86,1.86,0,0,1,.87-1.59,3.47,3.47,0,0,1,2.05-.61,3.42,3.42,0,0,1,1.75.44,2.5,2.5,0,0,1,1.1,1.27l-1.2.5a1.63,1.63,0,0,0-1.69-1,2,2,0,0,0-1,.26.78.78,0,0,0-.42.69q0,.63,1,.86l1.46.35a2.76,2.76,0,0,1,1.53.83,2,2,0,0,1,.5,1.32,2.05,2.05,0,0,1-.81,1.65A3.21,3.21,0,0,1,201.21,78.53Z"/><path d="M94.44,90.2H81.38v9.1H93.16v3.45H81.38v9.1H94.44v3.53H77.69V86.67H94.44Z"/><path d="M114.51,115.36h-4.33l-4.85-7.25-4.77,7.25H96.24l6.93-10L96.4,95.73h4.17l4.85,6.93L110,95.73h4.33l-6.85,9.66Z"/><path d="M126.49,116a8.34,8.34,0,0,1-4-1,6.8,6.8,0,0,1-2.66-2.4h-.16l.16,2.72V124h-3.69V95.73h3.53v2.72h.16a6.8,6.8,0,0,1,2.66-2.4,8.35,8.35,0,0,1,4-1,8.64,8.64,0,0,1,6.57,3,11.43,11.43,0,0,1,0,14.91A8.64,8.64,0,0,1,126.49,116Zm-.6-3.37a5.86,5.86,0,0,0,4.41-1.94,8.11,8.11,0,0,0,0-10.3,6,6,0,0,0-8.84,0,8.24,8.24,0,0,0,0,10.34A5.87,5.87,0,0,0,125.89,112.64Z"/><path d="M147.89,116a9.47,9.47,0,0,1-7.23-3,10.51,10.51,0,0,1-2.78-7.49,10.81,10.81,0,0,1,2.7-7.37,8.78,8.78,0,0,1,6.91-3.09,9.06,9.06,0,0,1,7,2.85,10.79,10.79,0,0,1,2.62,7.61l0,.68H141.56a6.66,6.66,0,0,0,2,4.69,6,6,0,0,0,4.27,1.72,5.29,5.29,0,0,0,5.37-3.37l3.29,1.36a8.8,8.8,0,0,1-3.17,3.83A9.2,9.2,0,0,1,147.89,116Zm5.29-12.82a5.23,5.23,0,0,0-1.54-3.21,5.51,5.51,0,0,0-4.23-1.52,5.29,5.29,0,0,0-3.55,1.28,6.55,6.55,0,0,0-2.06,3.45Z"/><path d="M163.6,95.73v3.21h.16a5.1,5.1,0,0,1,2.38-2.7,7.66,7.66,0,0,1,3.83-1,12.14,12.14,0,0,1,1.32.08v3.61a14.15,14.15,0,0,0-1.48-.08,6.23,6.23,0,0,0-4.35,1.54,5.42,5.42,0,0,0-1.7,4.23v10.74h-3.69V95.73Zm20.2,20a5.7,5.7,0,0,1-6.33-6.29V99.1H174V95.73h3.45v-6h3.69v6H186V99.1h-4.81v10q0,3.21,2.64,3.21a3.93,3.93,0,0,0,1.68-.32l1.28,3.17A7.46,7.46,0,0,1,183.8,115.69Z"/><path d="M196.38,116a8.82,8.82,0,0,1-5.43-1.6,9.48,9.48,0,0,1-3.15-4l3.29-1.36a5.43,5.43,0,0,0,5.33,3.69,4.87,4.87,0,0,0,2.83-.76,2.33,2.33,0,0,0,1.1-2q0-1.92-2.68-2.6l-4-1a9.44,9.44,0,0,1-3.57-1.82,4.39,4.39,0,0,1-1.68-3.63,5,5,0,0,1,2.3-4.23,9.25,9.25,0,0,1,5.47-1.62,9.12,9.12,0,0,1,4.65,1.18,6.67,6.67,0,0,1,2.93,3.39L200.58,101q-1.08-2.6-4.49-2.6a5.24,5.24,0,0,0-2.76.68,2.07,2.07,0,0,0-1.12,1.84q0,1.68,2.6,2.28l3.89.92a7.34,7.34,0,0,1,4.09,2.2,5.32,5.32,0,0,1,1.32,3.53,5.46,5.46,0,0,1-2.16,4.41A8.54,8.54,0,0,1,196.38,116Z"/></g><path class="cls-21" d="M185.3,132.11h-5.23v-.91l2.56-2.79a6.2,6.2,0,0,0,.86-1.13,1.81,1.81,0,0,0,.24-.86,1.31,1.31,0,0,0-.31-.89,1,1,0,0,0-.83-.36,1.28,1.28,0,0,0-1,.39,1.59,1.59,0,0,0-.34,1.07H180v0a2.31,2.31,0,0,1,.69-1.76,2.64,2.64,0,0,1,2-.72,2.49,2.49,0,0,1,1.79.63,2.16,2.16,0,0,1,.66,1.64,2.42,2.42,0,0,1-.38,1.29,10.83,10.83,0,0,1-1.18,1.5L181.74,131l0,0h3.54Z"/><path class="cls-21" d="M191.49,129.08a3.5,3.5,0,0,1-.69,2.34,2.35,2.35,0,0,1-1.88.81,2.37,2.37,0,0,1-1.89-.81,3.48,3.48,0,0,1-.7-2.34v-1.8a3.51,3.51,0,0,1,.69-2.34,2.6,2.6,0,0,1,3.77,0,3.49,3.49,0,0,1,.7,2.34Zm-1.31-2a2.53,2.53,0,0,0-.32-1.43,1.19,1.19,0,0,0-1.89,0,2.54,2.54,0,0,0-.32,1.43v2.19a2.54,2.54,0,0,0,.33,1.44,1.08,1.08,0,0,0,.95.47,1.07,1.07,0,0,0,.94-.46,2.59,2.59,0,0,0,.32-1.44Z"/><path class="cls-21" d="M195.94,132.11h-1.31v-6.62H193v-1l2.91-.28Z"/><path class="cls-21" d="M203.91,126.32a1.78,1.78,0,0,1-.32,1.05,2.06,2.06,0,0,1-.88.7,2.3,2.3,0,0,1,1,.75,1.83,1.83,0,0,1,.38,1.15,2,2,0,0,1-.72,1.68,3.38,3.38,0,0,1-3.79,0,2,2,0,0,1-.72-1.68,1.85,1.85,0,0,1,.38-1.15,2.29,2.29,0,0,1,1-.75,2,2,0,0,1-.88-.69,1.8,1.8,0,0,1-.32-1.06,2,2,0,0,1,.66-1.62,3,3,0,0,1,3.5,0A2,2,0,0,1,203.91,126.32Zm-1.11,3.58a1.25,1.25,0,0,0-.37-.94,1.29,1.29,0,0,0-.94-.36,1.23,1.23,0,0,0-1.3,1.3,1.23,1.23,0,0,0,.36.93,1.33,1.33,0,0,0,1,.34,1.31,1.31,0,0,0,.94-.34A1.22,1.22,0,0,0,202.8,129.9Zm-.21-3.53a1.2,1.2,0,0,0-.31-.85,1.14,1.14,0,0,0-1.6,0,1.23,1.23,0,0,0-.29.86,1.2,1.2,0,0,0,.3.86,1.05,1.05,0,0,0,.81.32,1,1,0,0,0,.8-.32A1.2,1.2,0,0,0,202.6,126.37Z"/><path class="cls-13" d="M103.79,207.75a5.45,5.45,0,0,1-2,1.62,8,8,0,0,1-3.66.72,6.37,6.37,0,0,1-4.65-1.79,6.19,6.19,0,0,1-1.83-4.62v-3.27a6.38,6.38,0,0,1,1.72-4.62A5.91,5.91,0,0,1,97.78,194a6.25,6.25,0,0,1,4.29,1.36,4.61,4.61,0,0,1,1.56,3.54l0,.06h-2.47a3,3,0,0,0-.92-2.08,3.38,3.38,0,0,0-2.41-.79,3.22,3.22,0,0,0-2.62,1.21,4.7,4.7,0,0,0-1,3.08v3.28a4.51,4.51,0,0,0,1.08,3.11,3.56,3.56,0,0,0,2.8,1.22,5.82,5.82,0,0,0,2-.28,2.76,2.76,0,0,0,1.11-.67v-3.17h-3.1v-2h5.71Z"/><path class="cls-13" d="M107.21,209.87V194.23h5.07a6.56,6.56,0,0,1,4.84,1.86,6.46,6.46,0,0,1,1.86,4.78v2.37a6.44,6.44,0,0,1-1.86,4.78,6.57,6.57,0,0,1-4.84,1.85Zm2.61-13.55v11.45h2.38a3.86,3.86,0,0,0,3.06-1.27,4.78,4.78,0,0,0,1.11-3.27v-2.39a4.75,4.75,0,0,0-1.11-3.25,3.86,3.86,0,0,0-3.06-1.27Z"/><path class="cls-13" d="M131.34,202.83H124.5v4.94h7.94v2.09H121.89V194.23h10.47v2.09H124.5v4.42h6.84Z"/><path class="cls-13" d="M79.25,175.08h-7v6.77H69.65V166H80.37v2.13H72.3V173h7Z"/><path class="cls-13" d="M85.08,167.17H82.44v-2.32h2.65Zm0,14.68H82.44V170.06h2.65Z"/><path class="cls-13" d="M93.92,172.45l-1.13,0a2.38,2.38,0,0,0-1.29.33,2.16,2.16,0,0,0-.8.93v8.19H88V170.06h2.42l.17,1.71a3.78,3.78,0,0,1,1.15-1.42,2.67,2.67,0,0,1,1.62-.51,2.47,2.47,0,0,1,.45,0l.38.09Z"/><path class="cls-13" d="M100.83,182.08a5.13,5.13,0,0,1-4-1.64,6,6,0,0,1-1.49-4.21v-.44a6.26,6.26,0,0,1,1.48-4.27,4.67,4.67,0,0,1,3.7-1.68,4.61,4.61,0,0,1,3.66,1.44,5.65,5.65,0,0,1,1.27,3.87v1.56H98.1l0,.05a3.69,3.69,0,0,0,.82,2.29,2.61,2.61,0,0,0,2.1.89,5.69,5.69,0,0,0,1.83-.26,6,6,0,0,0,1.47-.75l.85,1.74a5.49,5.49,0,0,1-1.77,1A7.36,7.36,0,0,1,100.83,182.08ZM100.53,172a2,2,0,0,0-1.61.78,3.83,3.83,0,0,0-.79,2l0,.05h4.67v-.27a2.82,2.82,0,0,0-.57-1.83A2.09,2.09,0,0,0,100.53,172Z"/><path class="cls-13" d="M117.94,176.35a6.66,6.66,0,0,1-1.2,4.16,4,4,0,0,1-3.39,1.57,3.9,3.9,0,0,1-1.91-.45,3.72,3.72,0,0,1-1.36-1.31l-.26,1.53h-2.22v-17h2.65v6.55a3.79,3.79,0,0,1,1.31-1.16,3.75,3.75,0,0,1,1.78-.4,3.92,3.92,0,0,1,3.42,1.72,7.8,7.8,0,0,1,1.2,4.55Zm-2.65-.23a6.09,6.09,0,0,0-.63-3,2.13,2.13,0,0,0-2-1.13,2.63,2.63,0,0,0-1.48.39,2.74,2.74,0,0,0-.94,1.09v4.95a2.59,2.59,0,0,0,.94,1.1,2.72,2.72,0,0,0,1.5.39,2.19,2.19,0,0,0,2-1,4.77,4.77,0,0,0,.62-2.61Z"/><path class="cls-13" d="M127.32,181.85q-.14-.45-.23-.87a6.07,6.07,0,0,1-.13-.85,4.68,4.68,0,0,1-1.43,1.39,3.65,3.65,0,0,1-2,.56,3.92,3.92,0,0,1-2.83-.95,3.44,3.44,0,0,1-1-2.6,3.08,3.08,0,0,1,1.35-2.67,6.53,6.53,0,0,1,3.8-1h2.06v-1a1.91,1.91,0,0,0-.54-1.45,2.16,2.16,0,0,0-1.56-.52,2.21,2.21,0,0,0-1.44.44,1.39,1.39,0,0,0-.53,1.12h-2.55v-.07a2.92,2.92,0,0,1,1.25-2.47,5.28,5.28,0,0,1,3.45-1.08,5,5,0,0,1,3.32,1,3.68,3.68,0,0,1,1.26,3v5.24a9.65,9.65,0,0,0,.1,1.4,7.5,7.5,0,0,0,.32,1.31Zm-3.25-1.9a3.33,3.33,0,0,0,1.8-.5,2.52,2.52,0,0,0,1.06-1.14v-1.74h-2.1a2.65,2.65,0,0,0-1.81.57,1.74,1.74,0,0,0-.65,1.35,1.37,1.37,0,0,0,.44,1.07A1.82,1.82,0,0,0,124.07,180Z"/><path class="cls-13" d="M139,178.65a1.23,1.23,0,0,0-.52-1,5.2,5.2,0,0,0-1.95-.71,8.09,8.09,0,0,1-3.2-1.27,2.66,2.66,0,0,1-1.08-2.24,3.19,3.19,0,0,1,1.25-2.53,5,5,0,0,1,3.3-1,5.18,5.18,0,0,1,3.43,1.06,3.15,3.15,0,0,1,1.21,2.63l0,.07h-2.54a1.66,1.66,0,0,0-.56-1.25,2.13,2.13,0,0,0-1.53-.52,2.18,2.18,0,0,0-1.46.43,1.33,1.33,0,0,0-.5,1.05,1.18,1.18,0,0,0,.47,1,5.06,5.06,0,0,0,1.92.65,8.11,8.11,0,0,1,3.3,1.29,2.72,2.72,0,0,1,1.07,2.27,3.09,3.09,0,0,1-1.31,2.58,5.59,5.59,0,0,1-3.46,1,5.28,5.28,0,0,1-3.63-1.18,3.32,3.32,0,0,1-1.26-2.7l0-.07h2.46a1.77,1.77,0,0,0,.74,1.49,3,3,0,0,0,1.7.47,2.72,2.72,0,0,0,1.58-.39A1.23,1.23,0,0,0,139,178.65Z"/><path class="cls-13" d="M149,182.08a5.13,5.13,0,0,1-4-1.64,6,6,0,0,1-1.49-4.21v-.44a6.26,6.26,0,0,1,1.48-4.27,4.67,4.67,0,0,1,3.7-1.68,4.61,4.61,0,0,1,3.66,1.44,5.65,5.65,0,0,1,1.27,3.87v1.56h-7.36l0,.05a3.69,3.69,0,0,0,.82,2.29,2.61,2.61,0,0,0,2.1.89,5.69,5.69,0,0,0,1.83-.26,6,6,0,0,0,1.47-.75l.85,1.74a5.49,5.49,0,0,1-1.77,1A7.35,7.35,0,0,1,149,182.08Zm-.3-10.11a2,2,0,0,0-1.61.78,3.84,3.84,0,0,0-.78,2l0,.05H151v-.27a2.82,2.82,0,0,0-.57-1.83A2.09,2.09,0,0,0,148.72,172Z"/></g></g></svg>