<svg xmlns="http://www.w3.org/2000/svg" width="91.987" height="91.955" viewBox="0 0 91.987 91.955"><path fill="#F37024" d="M77.922 13.367c-17.83-17.824-46.73-17.822-64.555 0-17.822 17.825-17.825 46.728 0 64.55C28.33 92.882 51.525 96.3 68.992 86.143c.004 0 .004.005.01.005 5.77-3.032 11.89-2.868 14.642-1.885.803.286.832.21.592-.47-.96-2.725-1.082-8.936 2.013-14.818-.002-.005-.006-.005-.01-.005 10.098-17.46 6.62-40.664-8.318-55.605z"/><path fill-rule="evenodd" clip-rule="evenodd" fill="#D35927" d="M76.98 41.84l-.016.028c.37-1-10.396.74-10.396.74l5.043-11.656-15.872 7.016 4.834-11.387-34.054 26.77-11.065-18.47L3.436 63.037c2.228 5.412 5.535 10.483 9.93 14.88 12.928 12.928 31.992 17.23 48.206 11.616L74.828 59.57l-3.2-5.163 5.35-12.567zM63.81 72.574c-.212.154-.424.3-.636.445.213-.147.425-.292.636-.446zm-1.028.717c-.242.162-.483.312-.724.46.24-.15.482-.298.724-.46zM76.36 42.94c-.02.025-.038.053-.058.078-.013.006-.013.01-.013.014 0-.002.03-.042.07-.092zM60.38 26.98c-.028.054-.05.11-.08.16.03-.05.052-.106.08-.16zm.365 47.534c.335-.178.674-.37 1.014-.575-.34.203-.68.396-1.015.574zm6.63-4.928c.164-.158.328-.314.492-.476-.164.162-.328.318-.493.476zm-3.124 2.657c.198-.148.396-.296.592-.45-.196.154-.393.3-.59.45zm1.056-.83c.187-.152.374-.304.56-.463-.186.16-.373.31-.56.464zm1.044-.887c.176-.156.352-.31.525-.47-.174.16-.35.314-.525.47zm3.42-3.434c-.14.16-.283.318-.426.477.143-.16.286-.318.427-.478zm-.937 1.03c-.15.16-.305.318-.458.477.153-.16.307-.317.458-.478zm3.52-4.32c-.11.157-.22.313-.334.47.112-.156.222-.313.332-.47zm2.12-3.52c-.083.162-.163.324-.25.484.087-.16.167-.322.25-.483zm-.647 1.194c-.09.16-.18.317-.276.476.095-.16.184-.317.276-.476zm-.71 1.173c-.1.157-.2.315-.302.472.103-.157.203-.315.303-.473zM70.28 66.5c.132-.156.263-.314.393-.475-.13.16-.26.32-.394.475zm.892-1.1c.123-.155.243-.313.362-.472-.12.158-.24.317-.362.473zm-.83-10.17c-.004 0-.004.007-.004.007-.03.035-.062.068-.1.104.037-.034.1-.108.1-.108h.003z"/><path fill-rule="evenodd" clip-rule="evenodd" fill="#fff" d="M15.594 57.764c.03.062.033.074 1.742 3.584v.016c8.345 15.572 27.747 21.5 43.41 13.15 5.474-2.914 11.802-9.38 14.558-16v-.003c.37-.818.37-1.8-.088-2.656-.78-1.47-2.606-2.025-4.074-1.243-.312.165-.576.38-.804.62h.003c-.002 0-3.984 4.33-6.615 7.286-1.52 1.716-2.586 2.86-3.326 3.29-.99.577-2.646-.644-2.028-1.88 1.244-2.484 12.82-14.234 17.918-20.897 0-.004.166-.206.238-.31h.003c.79-1.154.927-2.696.225-4.01-1-1.88-3.338-2.593-5.222-1.593-.453.24-.827.552-1.13.917L53.23 57.108c-.135.146-.27.27-.443.367-.702.37-1.567.102-1.94-.594-.316-.605-.132-1.276.324-1.76 8.286-8.7 14.705-16.444 19.84-23.324l.3-.395c.923-1.17 1.06-2.768.312-4.167-.998-1.888-3.347-2.6-5.234-1.595-.494.263-.903.62-1.23 1.03-5.61 7.172-19.818 22.48-20.033 22.613-.005 0-.01.01-.01.012-.7.367-1.565.104-1.935-.59-.113-.213-.42-.836-.032-1.403.008-.006.017-.024.024-.027 7.196-7.605 16.785-19.612 16.785-19.612.964-1.29 1.278-2.882.468-4.395-1.11-2.093-4.008-2.885-6.092-1.77-.588.31-1.467 1.217-1.467 1.217-18.828 21.406-20.067 22.65-20.1 22.685-1.98 2.22-8.054 2.467-8.672-1.978-.167-3.33.39-4.262 1.925-9.33 1.753-5.8-7.37-8.635-10.04-.674 0 0-2.755 6.95-2.6 12.935.1 3.91.726 7.848 2.214 11.414.004.006.007.018.01.028.012.01.02.03.023.046"/></svg>